<?xml version="1.0" encoding="UTF-8" standalone="no"?>
<svg width="240px" height="240px" viewBox="0 0 240 240" version="1.1" xmlns="http://www.w3.org/2000/svg" xmlns:xlink="http://www.w3.org/1999/xlink" xmlns:sketch="http://www.bohemiancoding.com/sketch/ns">
    <!-- Generator: Sketch 3.3.1 (12002) - http://www.bohemiancoding.com/sketch -->
    <title>Icon</title>
    <desc>Created with Sketch.</desc>
    <defs></defs>
    <g id="Page-1" stroke="none" stroke-width="1" fill="none" fill-rule="evenodd" sketch:type="MSPage">
        <g id="Icon" sketch:type="MSArtboardGroup">
            <path d="M43.6399148,0 L196.379616,0 L196.379616,43.6399148 L43.6399148,43.6399148 L43.6399148,0 L43.6399148,0 Z M21.8199574,21.8199574 L43.6399148,0 L43.6399148,43.6399148 L21.8199574,21.8199574 L21.8199574,21.8199574 Z M218.199574,21.8199574 L196.379616,0 L196.379616,43.6399148 L218.199574,21.8199574 Z M43.6399148,196.379616 L196.379616,196.379616 L196.379616,240.019531 L43.6399148,240.019531 L43.6399148,196.379616 Z M21.8199574,218.199574 L43.6399148,196.379616 L43.6399148,240.019531 L21.8199574,218.199574 L21.8199574,218.199574 Z M218.199574,218.199574 L196.379616,196.379616 L196.379616,240.019531 L218.199574,218.199574 Z M43.6944647,43.6399148 L0.0545498935,43.6399148 L21.8745073,21.8199574 L43.6944647,43.6399148 Z M43.6944647,196.379616 L0.0545498935,196.379616 L21.8745073,218.199574 L43.6944647,196.379616 Z M240.019531,196.379616 L196.379616,196.379616 L218.199574,218.199574 L240.019531,196.379616 Z M0,43.6399148 L43.6399148,43.6399148 L43.6399148,196.379616 L0,196.379616 L0,43.6399148 Z M196.379616,43.6399148 L240.019531,43.6399148 L240.019531,196.379616 L196.379616,196.379616 L196.379616,43.6399148 Z M240.019531,43.6399148 L196.379616,43.6399148 L218.199574,21.8199574 L240.019531,43.6399148 Z M43.6399148,43.6399148 L196.379616,43.6399148 L196.379616,196.379616 L43.6399148,196.379616 L43.6399148,43.6399148 Z" id="Colored-Gem" fill="#F5001D" sketch:type="MSShapeGroup"></path>
            <g id="Shading" sketch:type="MSLayerGroup" fill="#000000">
                <path d="M43.6399148,0 L196.379616,0 L196.379616,43.6399148 L43.6399148,43.6399148 L43.6399148,0 Z M21.8199574,21.8199574 L43.6399148,0 L43.6399148,43.6399148 L21.8199574,21.8199574 Z M218.199574,21.8199574 L196.379616,0 L196.379616,43.6399148 L218.199574,21.8199574 Z" id="Top" opacity="0.104477612" sketch:type="MSShapeGroup"></path>
                <path d="M43.6399148,196.379616 L196.379616,196.379616 L196.379616,240.019531 L43.6399148,240.019531 L43.6399148,196.379616 Z M21.8199574,218.199574 L43.6399148,196.379616 L43.6399148,240.019531 L21.8199574,218.199574 Z M218.199574,218.199574 L196.379616,196.379616 L196.379616,240.019531 L218.199574,218.199574 Z" id="Bottom" opacity="0.104477612" sketch:type="MSShapeGroup"></path>
                <path d="M43.6944647,43.6399148 L0.0545498935,43.6399148 L21.8745073,21.8199574 L43.6944647,43.6399148 Z M43.6944647,196.379616 L0.0545498935,196.379616 L21.8745073,218.199574 L43.6944647,196.379616 Z M0,43.6399148 L43.6399148,43.6399148 L43.6399148,196.379616 L0,196.379616 L0,43.6399148 Z" id="Left" opacity="0.298507463" sketch:type="MSShapeGroup"></path>
                <path d="M240.019531,196.379616 L196.379616,196.379616 L218.199574,218.199574 L240.019531,196.379616 Z M196.379616,43.6399148 L240.019531,43.6399148 L240.019531,196.379616 L196.379616,196.379616 L196.379616,43.6399148 Z M240.019531,43.6399148 L196.379616,43.6399148 L218.199574,21.8199574 L240.019531,43.6399148 Z" id="Right" opacity="0.298507463" sketch:type="MSShapeGroup"></path>
                <rect id="Center" opacity="0.149253731" sketch:type="MSShapeGroup" x="43.6399148" y="43.6399148" width="152.739702" height="152.739702"></rect>
            </g>
            <text id="JEM" sketch:type="MSTextLayer" font-family="Merriweather" font-size="65" font-weight="bold" fill="#FFF8F9">
                <tspan x="55.5097656" y="147.227539">JEM</tspan>
            </text>
        </g>
    </g>
</svg>