<?xml version="1.0" encoding="UTF-8" standalone="no"?>
<svg width="240px" height="240px" viewBox="0 0 240 240" version="1.1" xmlns="http://www.w3.org/2000/svg" xmlns:xlink="http://www.w3.org/1999/xlink" xmlns:sketch="http://www.bohemiancoding.com/sketch/ns">
    <!-- Generator: Sketch 3.3.1 (12002) - http://www.bohemiancoding.com/sketch -->
    <title>Icon Sans JEM</title>
    <desc>Created with Sketch.</desc>
    <defs></defs>
    <g id="Page-1" stroke="none" stroke-width="1" fill="none" fill-rule="evenodd" sketch:type="MSPage">
        <g id="Icon-Sans-JEM" sketch:type="MSArtboardGroup">
            <path d="M43.6399148,26 L196.379616,26 L196.379616,69.6399148 L43.6399148,69.6399148 L43.6399148,26 L43.6399148,26 Z M21.8199574,47.8199574 L43.6399148,26 L43.6399148,69.6399148 L21.8199574,47.8199574 L21.8199574,47.8199574 Z M218.199574,47.8199574 L196.379616,26 L196.379616,69.6399148 L218.199574,47.8199574 Z M43.6944647,170 L196.434166,170 L196.434166,213.639915 L43.6944647,213.639915 L43.6944647,170 Z M21.8745073,191.819957 L43.6944647,170 L43.6944647,213.639915 L21.8745073,191.819957 L21.8745073,191.819957 Z M218.254124,191.819957 L196.434166,170 L196.434166,213.639915 L218.254124,191.819957 Z M43.6944647,69.6399148 L0.0545498935,69.6399148 L21.8745073,47.8199574 L43.6944647,69.6399148 Z M43.6944647,170 L0.0545498935,170 L21.8745073,191.819957 L43.6944647,170 Z M196.434166,170 L218.254124,191.819957 L240.074081,170 L196.434166,170 Z M0,69.6399148 L43.6399148,69.6399148 L43.6399148,170 L0,170 L0,69.6399148 Z M196.379616,69.6399148 L240.019531,69.6399148 L240.019531,170 L196.379616,170 L196.379616,69.6399148 Z M240.019531,69.6399148 L196.379616,69.6399148 L218.199574,47.8199574 L240.019531,69.6399148 Z M43.6399148,69.6399148 L196.379616,69.6399148 L196.379616,170 L43.6399148,170 L43.6399148,69.6399148 Z" id="Colored-Gem" fill="#F5001D" sketch:type="MSShapeGroup" transform="translate(120.037041, 119.819957) rotate(-90.000000) translate(-120.037041, -119.819957) "></path>
            <g id="Shading" sketch:type="MSLayerGroup" transform="translate(120.500000, 120.000000) rotate(-90.000000) translate(-120.500000, -120.000000) translate(0.000000, 26.000000)" fill="#000000">
                <path d="M43.6399148,0 L196.379616,0 L196.379616,43.6399148 L43.6399148,43.6399148 L43.6399148,0 Z M21.8199574,21.8199574 L43.6399148,0 L43.6399148,43.6399148 L21.8199574,21.8199574 Z M218.199574,21.8199574 L196.379616,0 L196.379616,43.6399148 L218.199574,21.8199574 Z" id="Top" opacity="0.104477612" sketch:type="MSShapeGroup"></path>
                <path d="M43.6399148,144 L196.379616,144 L196.379616,187.639915 L43.6399148,187.639915 L43.6399148,144 Z M21.8199574,165.819957 L43.6399148,144 L43.6399148,187.639915 L21.8199574,165.819957 Z M218.199574,165.819957 L196.379616,144 L196.379616,187.639915 L218.199574,165.819957 Z" id="Bottom" opacity="0.104477612" sketch:type="MSShapeGroup"></path>
                <path d="M43.6944647,43.6399148 L0.0545498935,43.6399148 L21.8745073,21.8199574 L43.6944647,43.6399148 Z M43.6944647,143.819957 L0.0545498935,143.819957 L21.8745073,165.639915 L43.6944647,143.819957 Z M0,43.6399148 L43.6399148,43.6399148 L43.6399148,143.819957 L0,143.819957 L0,43.6399148 Z" id="Left" opacity="0.298507463" sketch:type="MSShapeGroup"></path>
                <path d="M240.019531,143.819957 L196.379616,143.819957 L218.199574,165.639915 L240.019531,143.819957 Z M196.379616,43.6399148 L240.019531,43.6399148 L240.019531,143.819957 L196.379616,143.819957 L196.379616,43.6399148 Z M240.019531,43.6399148 L196.379616,43.6399148 L218.199574,21.8199574 L240.019531,43.6399148 Z" id="Right" opacity="0.298507463" sketch:type="MSShapeGroup"></path>
                <rect id="Center" opacity="0.149253731" sketch:type="MSShapeGroup" x="43.6399148" y="43.6399148" width="152.739702" height="100.360085"></rect>
            </g>
        </g>
    </g>
</svg>